<?xml version="1.0" encoding="utf-8"?>
<!-- Generator: Adobe Illustrator 21.1.0, SVG Export Plug-In . SVG Version: 6.00 Build 0)  -->
<svg version="1.1" id="Livello_1" xmlns="http://www.w3.org/2000/svg" xmlns:xlink="http://www.w3.org/1999/xlink" x="0px" y="0px"
	 viewBox="0 0 451 318.9" style="enable-background:new 0 0 451 318.9;" xml:space="preserve">
<style type="text/css">
	.st0{fill:#005DA8;}
	.st1{fill:#F3823E;}
	.st2{fill:#808285;}
	.st3{fill:#FFFFFF;}
	.st4{fill:#008E4F;}
	.st5{fill:#E6E7E8;}
	.st6{fill:#C72731;}
</style>
<g>
	<g>
		<g>
			<path class="st0" d="M139.1,36.5c0,0,15.5,20.6,21,27c5.5,6.4,11.6,14.7,18.3,15.1c7.5,0.5,17.2-11.9,19.8-13.8
				c5.5-3.9,8.3-3.5,11-3.7c9.1-0.6,28.2,10.6,40.2,10.4c32.4-0.6,58.5-24.7,71-36.2C332.8,23.7,341,17,341,17s4.3,0.6,1.4,6.8
				c-2.4,5.2-35.9,58.6-92,60.1c-24.5,0.7-28.7-12.2-43-11.1c-9,0.6-17.8,18.6-34.8,18.7c-13.6,0.1-34.7-42.8-34.7-42.8
				S131.7,36.8,139.1,36.5L139.1,36.5z"/>
			<path class="st1" d="M199.7,50.6c6.7-2,10.9-7.7,9.4-12.8c-1.5-5.1-8.2-7.5-14.9-5.5c-6.7,2-10.9,7.7-9.4,12.8
				C186.3,50.1,193,52.6,199.7,50.6L199.7,50.6z"/>
			<polygon class="st1" points="186.6,116.6 207.2,116.6 207.2,191.7 186.6,191.7 186.6,116.6 			"/>
			<polygon class="st1" points="224.2,116.6 249.5,116.6 288.7,172.7 289,172.7 289,116.6 308.8,116.6 308.8,191.7 283.6,191.7 
				244.2,135.5 243.9,135.5 243.9,191.7 224.2,191.7 224.2,116.6 			"/>
			<path class="st1" d="M325.1,116.6h28.1c31.5,0,59.4,7.8,59.4,37.6c0,29.8-27.9,37.6-59.4,37.6h-28.1V116.6L325.1,116.6z
				 M345.8,179.8h11.5c17.2,0,33.9-9.4,33.9-25.7c0-16.4-16.7-25.7-33.9-25.7h-11.5V179.8L345.8,179.8z"/>
			<polygon class="st1" points="156.2,116.6 136.9,176.6 136.6,176.6 118.5,116.6 98,116.6 80.5,176.6 80.2,176.6 61.1,116.6 
				39.4,116.6 66.6,191.7 93.3,191.7 108,143.4 122.9,191.7 149.4,191.7 176.3,116.6 156.2,116.6 			"/>
		</g>
		<path class="st2" d="M108.5,264.2v-45.5h12.5c10.7,0,15.9,5,15.9,13.6c0,8.6-5.2,13.6-15.9,13.6h-3.8v18.3H108.5z M117.2,238.7
			h4.7c4.3,0,6.4-2.1,6.4-6.4c0-4.3-2.1-6.4-6.4-6.4h-4.7V238.7z"/>
		<path class="st2" d="M142.9,224v-7.2h7.9v7.2H142.9z M150.9,229.9v34.3h-7.9v-34.3H150.9z"/>
		<path class="st2" d="M182.7,229.9v34.3H175v-3.9c-2.9,2.5-5.6,4.5-8.9,4.5c-4.8,0-7.4-2.5-7.4-8.8v-26.1h7.9v25.2
			c0,2.3,0.8,3.8,2.9,3.8c1.6,0,3.5-1.6,5.2-3.1v-25.9H182.7z M169.7,216.5l5.9,9.2h-6.4l-9.3-9.2H169.7z"/>
		<path class="st2" d="M220.4,252h0.1l5.2-22.1h7.9l-9.3,34.3h-7.8l-9.3-34.3h7.9L220.4,252z"/>
		<path class="st2" d="M240.3,224v-7.2h7.9v7.2H240.3z M248.3,229.9v34.3h-7.9v-34.3H248.3z"/>
		<path class="st2" d="M272.8,241.8v-1.5c0-2.7-1.9-4-4.7-4c-2.8,0-4.7,1.4-4.7,4v13.6c0,2.6,1.9,4,4.7,4c2.8,0,4.7-1.4,4.7-4v-2.2
			h7.9v0.1c0,9.1-4.7,13-12.6,13c-7.9,0-12.6-3.9-12.6-13v-9.6c0-9.1,4.7-13,12.6-13c7.8,0,12.4,3.8,12.5,12.5H272.8z"/>
		<path class="st2" d="M287.8,224v-7.2h7.9v7.2H287.8z M295.7,229.9v34.3h-7.9v-34.3H295.7z"/>
		<path class="st2" d="M304.3,264.2v-34.3h7.7v3.9c2.9-2.5,5.6-4.5,8.9-4.5c4.9,0,7.4,2.5,7.4,8.8v26.1h-7.9V239
			c0-2.3-0.8-3.8-2.9-3.8c-1.6,0-3.5,1.6-5.2,3.1v25.9H304.3z"/>
		<path class="st2" d="M336.5,224v-7.2h7.9v7.2H336.5z M344.4,229.9v34.3h-7.9v-34.3H344.4z"/>
		<path class="st2" d="M351.1,264.2V257h7.9v7.2H351.1z"/>
	</g>
</g>
<g>
	<rect x="107.3" y="287.4" class="st3" width="238.3" height="16.4"/>
	<g>
		<rect x="108.5" y="288.7" class="st4" width="73.2" height="13.8"/>
		<rect x="189.9" y="288.7" class="st5" width="73.2" height="13.8"/>
		<rect x="271.2" y="288.7" class="st6" width="73.2" height="13.8"/>
	</g>
</g>
</svg>
